<svg width="32" height="32" viewBox="0 0 32 32" fill="none" xmlns="http://www.w3.org/2000/svg">
<g clip-path="url(#clip0_0_1675)">
<path d="M28.0002 8.88753C27.7648 9.00943 27.4906 9.03287 27.2379 8.95271C26.9853 8.87255 26.7748 8.69534 26.6527 8.46003C25.6982 6.57439 24.2534 4.98065 22.4702 3.84628C22.3591 3.77619 22.2628 3.68489 22.187 3.57761C22.1111 3.47032 22.0571 3.34915 22.0281 3.221C21.9991 3.09286 21.9956 2.96025 22.0178 2.83075C22.0401 2.70126 22.0876 2.57741 22.1577 2.46628C22.2278 2.35515 22.3191 2.25891 22.4264 2.18306C22.5336 2.10721 22.6548 2.05324 22.783 2.02422C22.9111 1.9952 23.0437 1.99171 23.1732 2.01394C23.3027 2.03617 23.4266 2.08369 23.5377 2.15378C25.6159 3.48445 27.3035 5.34323 28.4277 7.54003C28.5496 7.77543 28.573 8.04959 28.4929 8.30227C28.4127 8.55495 28.2355 8.76546 28.0002 8.88753ZM4.46394 9.00003C4.64714 8.99995 4.8268 8.94955 4.98331 8.85432C5.13982 8.75909 5.26716 8.6227 5.35144 8.46003C6.30594 6.57439 7.75071 4.98065 9.53394 3.84628C9.75838 3.70472 9.91739 3.4798 9.97599 3.221C10.0346 2.9622 9.988 2.69072 9.84644 2.46628C9.70488 2.24184 9.47996 2.08283 9.22116 2.02422C8.96236 1.96562 8.69088 2.01222 8.46644 2.15378C6.38819 3.48445 4.70066 5.34323 3.57644 7.54003C3.49748 7.69243 3.45909 7.86258 3.46494 8.03412C3.47079 8.20566 3.52069 8.3728 3.60985 8.51946C3.699 8.66613 3.8244 8.78738 3.97399 8.87154C4.12357 8.95571 4.2923 8.99996 4.46394 9.00003ZM27.7264 21.9925C27.9036 22.2963 27.9975 22.6415 27.9987 22.9932C27.9999 23.3448 27.9084 23.6906 27.7333 23.9956C27.5582 24.3007 27.3058 24.5541 27.0016 24.7304C26.6973 24.9068 26.3519 24.9998 26.0002 25H20.9002C20.6707 26.1303 20.0575 27.1465 19.1644 27.8764C18.2714 28.6063 17.1535 29.005 16.0002 29.005C14.8468 29.005 13.7289 28.6063 12.8359 27.8764C11.9429 27.1465 11.3297 26.1303 11.1002 25H6.00019C5.64871 24.9993 5.30363 24.906 4.9997 24.7295C4.69576 24.553 4.44371 24.2995 4.26894 23.9946C4.09416 23.6896 4.00283 23.344 4.00415 22.9925C4.00546 22.6411 4.09938 22.2962 4.27644 21.9925C5.40269 20.0488 6.00019 17.285 6.00019 14C6.00019 11.3479 7.05376 8.80433 8.92912 6.92896C10.8045 5.0536 13.348 4.00003 16.0002 4.00003C18.6524 4.00003 21.1959 5.0536 23.0713 6.92896C24.9466 8.80433 26.0002 11.3479 26.0002 14C26.0002 17.2838 26.5977 20.0475 27.7264 21.9925ZM18.8277 25H13.1727C13.3799 25.5843 13.7629 26.09 14.2693 26.4477C14.7756 26.8054 15.3803 26.9974 16.0002 26.9974C16.6201 26.9974 17.2248 26.8054 17.7311 26.4477C18.2374 26.09 18.6205 25.5843 18.8277 25Z" fill="#A3AED0"/>
</g>
<defs>
<clipPath id="clip0_0_1675">
<rect width="32" height="32" fill="white"/>
</clipPath>
</defs>
</svg>
