<svg width="22" height="15" viewBox="0 0 22 15" fill="none" xmlns="http://www.w3.org/2000/svg">
<path d="M21.5 11V13.25C21.5 13.6478 21.342 14.0294 21.0607 14.3107C20.7794 14.592 20.3978 14.75 20 14.75H9.86844C9.79927 14.7501 9.73143 14.731 9.67242 14.6949C9.61342 14.6588 9.56555 14.6071 9.53411 14.5454C9.50268 14.4838 9.48889 14.4147 9.49429 14.3458C9.49968 14.2768 9.52405 14.2107 9.56469 14.1547L15.3378 6.21875C15.4575 6.0598 15.5109 5.8607 15.487 5.66319C15.463 5.46568 15.3635 5.28512 15.2094 5.15937C15.1301 5.09783 15.0392 5.05284 14.9421 5.02707C14.8451 5.0013 14.7439 4.99527 14.6445 5.00935C14.5451 5.02342 14.4495 5.05732 14.3634 5.10901C14.2774 5.16071 14.2026 5.22916 14.1434 5.31031L7.39344 14.5972C7.35806 14.6453 7.31169 14.6843 7.25821 14.7109C7.20472 14.7374 7.14566 14.7509 7.08594 14.75H2C1.60218 14.75 1.22064 14.592 0.93934 14.3107C0.658035 14.0294 0.5 13.6478 0.5 13.25V11.1059C0.5 10.9381 0.5 10.7713 0.512187 10.6063C0.517002 10.5101 0.558626 10.4194 0.628437 10.3531C0.698249 10.2868 0.790896 10.2499 0.887187 10.25H3.5C3.60282 10.2502 3.70458 10.2293 3.79897 10.1885C3.89336 10.1478 3.97837 10.0881 4.0487 10.0131C4.11904 9.93807 4.1732 9.84942 4.20783 9.75261C4.24246 9.6558 4.25681 9.5529 4.25 9.45031C4.23341 9.25712 4.14417 9.07742 4.00028 8.94745C3.85639 8.81748 3.66856 8.74692 3.47469 8.75H1.2425C1.18529 8.74996 1.12885 8.73683 1.0775 8.71161C1.02615 8.6864 0.981246 8.64977 0.946231 8.60453C0.911215 8.55929 0.887014 8.50664 0.87548 8.4506C0.863946 8.39457 0.865385 8.33664 0.879687 8.28125C2.00469 4.17125 5.53531 1.05031 9.83469 0.5675C9.88721 0.56182 9.94034 0.567302 9.9906 0.583587C10.0409 0.599872 10.0871 0.626592 10.1263 0.661997C10.1655 0.697403 10.1968 0.740693 10.2181 0.789033C10.2394 0.837373 10.2503 0.889671 10.25 0.9425V3.5C10.2498 3.60282 10.2707 3.70458 10.3115 3.79897C10.3522 3.89336 10.4119 3.97837 10.4869 4.0487C10.5619 4.11904 10.6506 4.1732 10.7474 4.20783C10.8442 4.24246 10.9471 4.25681 11.0497 4.25C11.2429 4.23341 11.4226 4.14417 11.5526 4.00028C11.6825 3.85639 11.7531 3.66856 11.75 3.47469V0.937812C11.7497 0.884983 11.7606 0.832685 11.7819 0.784346C11.8032 0.736006 11.8345 0.692715 11.8737 0.65731C11.9129 0.621905 11.9591 0.595184 12.0094 0.578899C12.0597 0.562614 12.1128 0.557132 12.1653 0.562812C14.2643 0.798678 16.2436 1.66111 17.8456 3.03778C19.4475 4.41446 20.5977 6.2416 21.1466 8.28125C21.1609 8.33672 21.1623 8.39473 21.1507 8.45083C21.1391 8.50694 21.1149 8.55964 21.0797 8.6049C21.0446 8.65016 20.9996 8.68677 20.9481 8.71192C20.8966 8.73708 20.8401 8.7501 20.7828 8.75H18.5253C18.3318 8.74739 18.1444 8.81817 18.0009 8.94809C17.8574 9.07802 17.7684 9.25745 17.7519 9.45031C17.7451 9.5529 17.7594 9.6558 17.794 9.75261C17.8287 9.84942 17.8828 9.93807 17.9532 10.0131C18.0235 10.0881 18.1085 10.1478 18.2029 10.1885C18.2973 10.2293 18.3991 10.2502 18.5019 10.25H21.1194C21.2166 10.2499 21.31 10.2876 21.38 10.3552C21.45 10.4227 21.491 10.5147 21.4944 10.6119C21.5 10.7403 21.5 10.8697 21.5 11Z" fill="#A3AED0"/>
</svg>
