<svg width="13" height="14" viewBox="0 0 13 14" fill="none" xmlns="http://www.w3.org/2000/svg">
<path fill-rule="evenodd" clip-rule="evenodd" d="M12.1009 2.27006C12.3732 2.27006 12.5999 2.49615 12.5999 2.78385V3.04984C12.5999 3.33054 12.3732 3.56363 12.1009 3.56363H0.499693C0.2267 3.56363 0 3.33054 0 3.04984V2.78385C0 2.49615 0.2267 2.27006 0.499693 2.27006H2.54067C2.95527 2.27006 3.31608 1.97536 3.40935 1.55957L3.51623 1.08218C3.68234 0.431892 4.22901 0 4.85465 0H7.74524C8.36407 0 8.91687 0.431892 9.07685 1.04788L9.19122 1.55887C9.28381 1.97536 9.64462 2.27006 10.0599 2.27006H12.1009ZM11.064 11.9939C11.2771 10.008 11.6501 5.2901 11.6501 5.2425C11.6637 5.09831 11.6168 4.96181 11.5235 4.85191C11.4234 4.74901 11.2968 4.68811 11.1572 4.68811H1.44794C1.3077 4.68811 1.17426 4.74901 1.08168 4.85191C0.987728 4.96181 0.941435 5.09831 0.948243 5.2425C0.949494 5.25125 0.96288 5.41743 0.98526 5.69527C1.08468 6.92953 1.36159 10.3672 1.54052 11.9939C1.66715 13.1923 2.45345 13.9454 3.5924 13.9727C4.47128 13.993 5.37672 14 6.30258 14C7.17466 14 8.06036 13.993 8.96648 13.9727C10.1449 13.9524 10.9305 13.2126 11.064 11.9939Z" fill="#FF0000"/>
</svg>
