<svg width="26" height="26" viewBox="0 0 26 26" fill="none" xmlns="http://www.w3.org/2000/svg">
<g clip-path="url(#clip0_0_766)">
<path d="M13 3V23" stroke="#2B3674" stroke-width="3" stroke-linecap="round" stroke-linejoin="round"/>
<path d="M18.3847 9.15386C18.3847 8.64878 18.2852 8.14864 18.0919 7.682C17.8986 7.21537 17.6153 6.79137 17.2581 6.43422C16.901 6.07707 16.477 5.79377 16.0104 5.60048C15.5437 5.40719 15.0436 5.30771 14.5385 5.30771H11.4616C10.4415 5.30771 9.46323 5.71293 8.74193 6.43422C8.02064 7.15551 7.61542 8.1338 7.61542 9.15386C7.61542 10.1739 8.02064 11.1522 8.74193 11.8735C9.46323 12.5948 10.4415 13 11.4616 13H15.3077C16.3278 13 17.3061 13.4052 18.0274 14.1265C18.7487 14.8478 19.1539 15.8261 19.1539 16.8462C19.1539 17.8662 18.7487 18.8445 18.0274 19.5658C17.3061 20.2871 16.3278 20.6923 15.3077 20.6923H10.6923C9.67228 20.6923 8.694 20.2871 7.9727 19.5658C7.25141 18.8445 6.84619 17.8662 6.84619 16.8462" stroke="#2B3674" stroke-width="3" stroke-linecap="round" stroke-linejoin="round"/>
</g>
<defs>
<clipPath id="clip0_0_766">
<rect width="24.6154" height="24.6154" fill="white" transform="translate(0.692383 0.692322)"/>
</clipPath>
</defs>
</svg>
