<svg width="26" height="26" viewBox="0 0 26 26"  xmlns="http://www.w3.org/2000/svg">
<path d="M13 0C10.4288 0 7.91543 0.762437 5.77759 2.1909C3.63975 3.61935 1.97351 5.64968 0.989572 8.02512C0.0056327 10.4006 -0.251811 13.0144 0.249797 15.5362C0.751405 18.0579 1.98953 20.3743 3.80762 22.1924C5.6257 24.0105 7.94208 25.2486 10.4638 25.7502C12.9856 26.2518 15.5995 25.9944 17.9749 25.0104C20.3503 24.0265 22.3807 22.3603 23.8091 20.2224C25.2376 18.0846 26 15.5712 26 13C25.9964 9.5533 24.6256 6.24882 22.1884 3.81163C19.7512 1.37445 16.4467 0.00363977 13 0ZM18.7075 11.7075L13.7075 16.7075C13.6146 16.8005 13.5043 16.8742 13.3829 16.9246C13.2615 16.9749 13.1314 17.0008 13 17.0008C12.8686 17.0008 12.7385 16.9749 12.6171 16.9246C12.4957 16.8742 12.3854 16.8005 12.2925 16.7075L7.29251 11.7075C7.10486 11.5199 6.99945 11.2654 6.99945 11C6.99945 10.7346 7.10486 10.4801 7.29251 10.2925C7.48015 10.1049 7.73464 9.99944 8.00001 9.99944C8.26537 9.99944 8.51987 10.1049 8.70751 10.2925L13 14.5863L17.2925 10.2925C17.3854 10.1996 17.4957 10.1259 17.6171 10.0756C17.7385 10.0253 17.8686 9.99944 18 9.99944C18.1314 9.99944 18.2615 10.0253 18.3829 10.0756C18.5043 10.1259 18.6146 10.1996 18.7075 10.2925C18.8004 10.3854 18.8741 10.4957 18.9244 10.6171C18.9747 10.7385 19.0006 10.8686 19.0006 11C19.0006 11.1314 18.9747 11.2615 18.9244 11.3829C18.8741 11.5043 18.8004 11.6146 18.7075 11.7075Z"/>
</svg>
