<svg width="18" height="20" viewBox="0 0 18 20" fill="none" xmlns="http://www.w3.org/2000/svg">
<path d="M16.5 0.75H1.5C1.10218 0.75 0.720644 0.908035 0.43934 1.18934C0.158035 1.47064 0 1.85218 0 2.25V7.75969C0 16.1616 7.10812 18.9478 8.53125 19.4203C8.8351 19.5243 9.1649 19.5243 9.46875 19.4203C10.8938 18.9469 18 16.1606 18 7.75875V2.25C18 1.85218 17.842 1.47064 17.5607 1.18934C17.2794 0.908035 16.8978 0.75 16.5 0.75ZM13.0312 8.94656L10.1897 10.0828L11.85 12.3C11.9693 12.4591 12.0206 12.6592 11.9925 12.8561C11.9643 13.053 11.8591 13.2307 11.7 13.35C11.5409 13.4693 11.3408 13.5206 11.1439 13.4925C10.947 13.4643 10.7693 13.3591 10.65 13.2L9 10.9997L7.35 13.2C7.29091 13.2788 7.21687 13.3452 7.13212 13.3954C7.04737 13.4455 6.95357 13.4785 6.85607 13.4925C6.75856 13.5064 6.65927 13.501 6.56386 13.4765C6.46845 13.4521 6.37879 13.4091 6.3 13.35C6.22121 13.2909 6.15482 13.2169 6.10464 13.1321C6.05446 13.0474 6.02147 12.9536 6.00754 12.8561C5.99361 12.7586 5.99902 12.6593 6.02346 12.5639C6.04791 12.4685 6.09091 12.3788 6.15 12.3L7.81312 10.0828L4.96875 8.94656C4.78401 8.87197 4.63647 8.72705 4.55858 8.54367C4.52002 8.45287 4.49971 8.35537 4.49883 8.25672C4.49795 8.15808 4.5165 8.06022 4.55344 7.96875C4.59037 7.87728 4.64496 7.79397 4.71409 7.7236C4.78322 7.65322 4.86553 7.59715 4.95633 7.55858C5.13971 7.4807 5.34651 7.47885 5.53125 7.55344L8.25 8.64188V6C8.25 5.80109 8.32902 5.61032 8.46967 5.46967C8.61032 5.32902 8.80109 5.25 9 5.25C9.19891 5.25 9.38968 5.32902 9.53033 5.46967C9.67098 5.61032 9.75 5.80109 9.75 6V8.64188L12.4688 7.55344C12.5602 7.5165 12.6581 7.49795 12.7567 7.49883C12.8554 7.49971 12.9529 7.52002 13.0437 7.55858C13.1345 7.59715 13.2168 7.65322 13.2859 7.7236C13.355 7.79397 13.4096 7.87728 13.4466 7.96875C13.4835 8.06022 13.5021 8.15808 13.5012 8.25672C13.5003 8.35537 13.48 8.45287 13.4414 8.54367C13.4029 8.63447 13.3468 8.71678 13.2764 8.78591C13.206 8.85504 13.1227 8.90963 13.0312 8.94656Z" fill="#A3AED0"/>
</svg>
