<svg width="26" height="26" viewBox="0 0 26 26" fill="none" xmlns="http://www.w3.org/2000/svg">
<g clip-path="url(#clip0_0_690)">
<path d="M21.4615 4.53848H7.61538C7.20736 4.53848 6.81605 4.70057 6.52753 4.98909C6.23901 5.27761 6.07692 5.66892 6.07692 6.07694V7.61541H4.53846C4.13044 7.61541 3.73912 7.77749 3.4506 8.06601C3.16209 8.35453 3 8.74584 3 9.15387V19.9231C3 20.3311 3.16209 20.7224 3.4506 21.011C3.73912 21.2995 4.13044 21.4616 4.53846 21.4616H18.3846C18.7926 21.4616 19.184 21.2995 19.4725 21.011C19.761 20.7224 19.9231 20.3311 19.9231 19.9231V18.3846H21.4615C21.8696 18.3846 22.2609 18.2225 22.5494 17.934C22.8379 17.6455 23 17.2542 23 16.8462V6.07694C23 5.66892 22.8379 5.27761 22.5494 4.98909C22.2609 4.70057 21.8696 4.53848 21.4615 4.53848ZM18.3846 9.15387V10.6923H4.53846V9.15387H18.3846ZM21.4615 16.8462H19.9231V9.15387C19.9231 8.74584 19.761 8.35453 19.4725 8.06601C19.184 7.77749 18.7926 7.61541 18.3846 7.61541H7.61538V6.07694H21.4615V16.8462Z" fill="#2B3674"/>
</g>
<defs>
<clipPath id="clip0_0_690">
<rect width="24.6154" height="24.6154" fill="white" transform="translate(0.692383 0.692322)"/>
</clipPath>
</defs>
</svg>
