<svg width="28" height="28" viewBox="0 0 28 28" fill="none" xmlns="http://www.w3.org/2000/svg">
<g clip-path="url(#clip0_0_1645)">
<path d="M14 2.625C11.7502 2.625 9.551 3.29213 7.68039 4.54203C5.80978 5.79193 4.35182 7.56847 3.49088 9.64698C2.62993 11.7255 2.40467 14.0126 2.84357 16.2192C3.28248 18.4257 4.36584 20.4525 5.95667 22.0433C7.54749 23.6342 9.57432 24.7175 11.7809 25.1564C13.9874 25.5953 16.2745 25.3701 18.353 24.5091C20.4315 23.6482 22.2081 22.1902 23.458 20.3196C24.7079 18.449 25.375 16.2498 25.375 14C25.3718 10.9841 24.1724 8.09271 22.0398 5.96018C19.9073 3.82764 17.0159 2.62818 14 2.625ZM15.3125 19.25H14.875V20.125C14.875 20.3571 14.7828 20.5796 14.6187 20.7437C14.4546 20.9078 14.2321 21 14 21C13.7679 21 13.5454 20.9078 13.3813 20.7437C13.2172 20.5796 13.125 20.3571 13.125 20.125V19.25H11.375C11.1429 19.25 10.9204 19.1578 10.7563 18.9937C10.5922 18.8296 10.5 18.6071 10.5 18.375C10.5 18.1429 10.5922 17.9204 10.7563 17.7563C10.9204 17.5922 11.1429 17.5 11.375 17.5H15.3125C15.6606 17.5 15.9944 17.3617 16.2406 17.1156C16.4867 16.8694 16.625 16.5356 16.625 16.1875C16.625 15.8394 16.4867 15.5056 16.2406 15.2594C15.9944 15.0133 15.6606 14.875 15.3125 14.875H12.6875C11.8753 14.875 11.0963 14.5523 10.522 13.978C9.94766 13.4037 9.625 12.6247 9.625 11.8125C9.625 11.0003 9.94766 10.2213 10.522 9.64699C11.0963 9.07266 11.8753 8.75 12.6875 8.75H13.125V7.875C13.125 7.64294 13.2172 7.42038 13.3813 7.25628C13.5454 7.09219 13.7679 7 14 7C14.2321 7 14.4546 7.09219 14.6187 7.25628C14.7828 7.42038 14.875 7.64294 14.875 7.875V8.75H16.625C16.8571 8.75 17.0796 8.84219 17.2437 9.00628C17.4078 9.17038 17.5 9.39294 17.5 9.625C17.5 9.85706 17.4078 10.0796 17.2437 10.2437C17.0796 10.4078 16.8571 10.5 16.625 10.5H12.6875C12.3394 10.5 12.0056 10.6383 11.7594 10.8844C11.5133 11.1306 11.375 11.4644 11.375 11.8125C11.375 12.1606 11.5133 12.4944 11.7594 12.7406C12.0056 12.9867 12.3394 13.125 12.6875 13.125H15.3125C16.1247 13.125 16.9037 13.4477 17.478 14.022C18.0524 14.5963 18.375 15.3753 18.375 16.1875C18.375 16.9997 18.0524 17.7787 17.478 18.353C16.9037 18.9273 16.1247 19.25 15.3125 19.25Z" fill="#A3AED0"/>
</g>
<defs>
<clipPath id="clip0_0_1645">
<rect width="28" height="28" fill="white"/>
</clipPath>
</defs>
</svg>
