<svg width="24" height="24" viewBox="0 0 24 24" fill="none" xmlns="http://www.w3.org/2000/svg">
<g clip-path="url(#clip0_0_1657)">
<path d="M24 0H0V24H24V0Z" fill="#A3AED0"/>
<path d="M22.4999 5.25V11.25C22.5 11.3984 22.4561 11.5435 22.3737 11.667C22.2913 11.7904 22.1741 11.8867 22.037 11.9435C21.8999 12.0003 21.749 12.0151 21.6034 11.9861C21.4579 11.9572 21.3242 11.8856 21.2193 11.7806L18.7499 9.31031L13.2806 14.7806C13.2109 14.8504 13.1282 14.9057 13.0371 14.9434C12.9461 14.9812 12.8485 15.0006 12.7499 15.0006C12.6514 15.0006 12.5538 14.9812 12.4627 14.9434C12.3717 14.9057 12.289 14.8504 12.2193 14.7806L8.99993 11.5603L2.78055 17.7806C2.63982 17.9214 2.44895 18.0004 2.24993 18.0004C2.05091 18.0004 1.86003 17.9214 1.7193 17.7806C1.57857 17.6399 1.49951 17.449 1.49951 17.25C1.49951 17.051 1.57857 16.8601 1.7193 16.7194L8.4693 9.96938C8.53896 9.89964 8.62168 9.84432 8.71272 9.80658C8.80377 9.76884 8.90137 9.74941 8.99993 9.74941C9.09849 9.74941 9.19609 9.76884 9.28713 9.80658C9.37818 9.84432 9.4609 9.89964 9.53055 9.96938L12.7499 13.1897L17.6896 8.25L15.2193 5.78063C15.1143 5.67573 15.0428 5.54204 15.0138 5.39648C14.9848 5.25092 14.9996 5.10002 15.0565 4.96291C15.1133 4.82579 15.2095 4.70861 15.3329 4.62621C15.4564 4.54381 15.6015 4.49988 15.7499 4.5H21.7499C21.9488 4.5 22.1396 4.57902 22.2803 4.71967C22.4209 4.86032 22.4999 5.05109 22.4999 5.25Z" fill="white"/>
</g>
<defs>
<clipPath id="clip0_0_1657">
<rect width="24" height="24" fill="white"/>
</clipPath>
</defs>
</svg>
