<svg width="26" height="27" viewBox="0 0 26 27" fill="none" xmlns="http://www.w3.org/2000/svg">
<path d="M25.0002 6.88753C24.7648 7.00943 24.4906 7.03287 24.2379 6.95271C23.9853 6.87255 23.7748 6.69534 23.6527 6.46003C22.6982 4.57439 21.2534 2.98065 19.4702 1.84628C19.3591 1.77619 19.2628 1.68489 19.187 1.57761C19.1111 1.47032 19.0571 1.34915 19.0281 1.221C18.9991 1.09286 18.9956 0.96025 19.0178 0.830754C19.0401 0.701259 19.0876 0.57741 19.1577 0.466279C19.2278 0.355148 19.3191 0.258911 19.4264 0.183063C19.5336 0.107214 19.6548 0.0532402 19.783 0.0242219C19.9111 -0.00479645 20.0437 -0.00829063 20.1732 0.0139389C20.3027 0.0361684 20.4266 0.0836862 20.5377 0.153779C22.6159 1.48445 24.3035 3.34323 25.4277 5.54003C25.5496 5.77543 25.573 6.04959 25.4929 6.30227C25.4127 6.55495 25.2355 6.76546 25.0002 6.88753ZM1.46394 7.00003C1.64714 6.99995 1.8268 6.94955 1.98331 6.85432C2.13982 6.75909 2.26716 6.6227 2.35144 6.46003C3.30594 4.57439 4.75071 2.98065 6.53394 1.84628C6.75838 1.70472 6.91739 1.4798 6.97599 1.221C7.0346 0.9622 6.988 0.690719 6.84644 0.466279C6.70488 0.24184 6.47996 0.082827 6.22116 0.0242219C5.96236 -0.0343833 5.69088 0.0122199 5.46644 0.153779C3.38819 1.48445 1.70066 3.34323 0.576437 5.54003C0.497484 5.69243 0.459086 5.86258 0.464937 6.03412C0.470788 6.20566 0.520692 6.3728 0.609846 6.51946C0.699001 6.66613 0.824404 6.78738 0.973988 6.87154C1.12357 6.95571 1.2923 6.99996 1.46394 7.00003ZM24.7264 19.9925C24.9036 20.2963 24.9975 20.6415 24.9987 20.9932C24.9999 21.3448 24.9084 21.6906 24.7333 21.9956C24.5582 22.3007 24.3058 22.5541 24.0016 22.7304C23.6973 22.9068 23.3519 22.9998 23.0002 23H17.9002C17.6707 24.1303 17.0575 25.1465 16.1644 25.8764C15.2714 26.6063 14.1535 27.005 13.0002 27.005C11.8468 27.005 10.7289 26.6063 9.83593 25.8764C8.94292 25.1465 8.3297 24.1303 8.10019 23H3.00019C2.64871 22.9993 2.30363 22.906 1.9997 22.7295C1.69576 22.553 1.44371 22.2995 1.26894 21.9946C1.09416 21.6896 1.00283 21.344 1.00415 20.9925C1.00546 20.6411 1.09938 20.2962 1.27644 19.9925C2.40269 18.0488 3.00019 15.285 3.00019 12C3.00019 9.34786 4.05376 6.80433 5.92912 4.92896C7.80448 3.0536 10.348 2.00003 13.0002 2.00003C15.6524 2.00003 18.1959 3.0536 20.0713 4.92896C21.9466 6.80433 23.0002 9.34786 23.0002 12C23.0002 15.2838 23.5977 18.0475 24.7264 19.9925ZM15.8277 23H10.1727C10.3799 23.5843 10.7629 24.09 11.2693 24.4477C11.7756 24.8054 12.3803 24.9974 13.0002 24.9974C13.6201 24.9974 14.2248 24.8054 14.7311 24.4477C15.2374 24.09 15.6205 23.5843 15.8277 23Z" fill="#A3AED0"/>
</svg>
