<svg width="24" height="24" viewBox="0 0 24 24" fill="none" xmlns="http://www.w3.org/2000/svg">
<path d="M12 0.625C9.75024 0.625 7.551 1.29213 5.68039 2.54203C3.80978 3.79193 2.35182 5.56847 1.49088 7.64698C0.629929 9.72548 0.404666 12.0126 0.843573 14.2192C1.28248 16.4257 2.36584 18.4525 3.95667 20.0433C5.54749 21.6342 7.57432 22.7175 9.78085 23.1564C11.9874 23.5953 14.2745 23.3701 16.353 22.5091C18.4315 21.6482 20.2081 20.1902 21.458 18.3196C22.7079 16.449 23.375 14.2498 23.375 12C23.3718 8.98414 22.1724 6.09271 20.0398 3.96018C17.9073 1.82764 15.0159 0.628185 12 0.625ZM13.3125 17.25H12.875V18.125C12.875 18.3571 12.7828 18.5796 12.6187 18.7437C12.4546 18.9078 12.2321 19 12 19C11.7679 19 11.5454 18.9078 11.3813 18.7437C11.2172 18.5796 11.125 18.3571 11.125 18.125V17.25H9.375C9.14294 17.25 8.92038 17.1578 8.75629 16.9937C8.59219 16.8296 8.5 16.6071 8.5 16.375C8.5 16.1429 8.59219 15.9204 8.75629 15.7563C8.92038 15.5922 9.14294 15.5 9.375 15.5H13.3125C13.6606 15.5 13.9944 15.3617 14.2406 15.1156C14.4867 14.8694 14.625 14.5356 14.625 14.1875C14.625 13.8394 14.4867 13.5056 14.2406 13.2594C13.9944 13.0133 13.6606 12.875 13.3125 12.875H10.6875C9.87528 12.875 9.09632 12.5523 8.52199 11.978C7.94766 11.4037 7.625 10.6247 7.625 9.8125C7.625 9.00027 7.94766 8.22132 8.52199 7.64699C9.09632 7.07266 9.87528 6.75 10.6875 6.75H11.125V5.875C11.125 5.64294 11.2172 5.42038 11.3813 5.25628C11.5454 5.09219 11.7679 5 12 5C12.2321 5 12.4546 5.09219 12.6187 5.25628C12.7828 5.42038 12.875 5.64294 12.875 5.875V6.75H14.625C14.8571 6.75 15.0796 6.84219 15.2437 7.00628C15.4078 7.17038 15.5 7.39294 15.5 7.625C15.5 7.85706 15.4078 8.07962 15.2437 8.24372C15.0796 8.40781 14.8571 8.5 14.625 8.5H10.6875C10.3394 8.5 10.0056 8.63828 9.75943 8.88442C9.51329 9.13056 9.375 9.4644 9.375 9.8125C9.375 10.1606 9.51329 10.4944 9.75943 10.7406C10.0056 10.9867 10.3394 11.125 10.6875 11.125H13.3125C14.1247 11.125 14.9037 11.4477 15.478 12.022C16.0524 12.5963 16.375 13.3753 16.375 14.1875C16.375 14.9997 16.0524 15.7787 15.478 16.353C14.9037 16.9273 14.1247 17.25 13.3125 17.25Z" fill="#A3AED0"/>
</svg>
