<svg width="32" height="32" viewBox="0 0 32 32" fill="none" xmlns="http://www.w3.org/2000/svg">
<g clip-path="url(#clip0_0_1671)">
<path d="M29.7427 13.4013C29.7149 13.2604 29.657 13.1273 29.5731 13.0108C29.4892 12.8943 29.3812 12.7973 29.2565 12.7263L25.5277 10.6013L25.5127 6.39877C25.5123 6.25403 25.4804 6.11112 25.4193 5.97991C25.3583 5.84869 25.2694 5.7323 25.159 5.63877C23.8064 4.49464 22.2488 3.61785 20.569 3.05502C20.4367 3.01024 20.2965 2.99367 20.1574 3.00637C20.0184 3.01908 19.8835 3.06077 19.7615 3.12877L16.0002 5.23127L12.2352 3.12502C12.1132 3.05664 11.9781 3.01463 11.8388 3.00171C11.6995 2.98879 11.559 3.00525 11.4265 3.05002C9.7477 3.61646 8.19179 4.49665 6.84149 5.64377C6.7312 5.73716 6.64246 5.85336 6.58139 5.98434C6.52032 6.11533 6.48837 6.258 6.48774 6.40252L6.46899 10.6088L2.74024 12.7338C2.61549 12.8048 2.50749 12.9018 2.42359 13.0183C2.33969 13.1348 2.28184 13.2679 2.25399 13.4088C1.91273 15.1236 1.91273 16.8889 2.25399 18.6038C2.28184 18.7446 2.33969 18.8778 2.42359 18.9942C2.50749 19.1107 2.61549 19.2077 2.74024 19.2788L6.46899 21.4038L6.48399 25.6075C6.48444 25.7523 6.51631 25.8952 6.57738 26.0264C6.63846 26.1576 6.72729 26.274 6.83774 26.3675C8.19033 27.5116 9.74793 28.3884 11.4277 28.9513C11.56 28.996 11.7002 29.0126 11.8393 28.9999C11.9784 28.9872 12.1133 28.9455 12.2352 28.8775L16.0002 26.7688L19.7652 28.875C19.9142 28.958 20.0822 29.0011 20.2527 29C20.362 29 20.4704 28.9823 20.574 28.9475C22.2524 28.3813 23.8082 27.502 25.159 26.3563C25.2693 26.2629 25.358 26.1467 25.4191 26.0157C25.4802 25.8847 25.5121 25.742 25.5127 25.5975L25.5315 21.3913L29.2602 19.2663C29.385 19.1952 29.493 19.0982 29.5769 18.9817C29.6608 18.8653 29.7186 18.7321 29.7465 18.5913C30.0858 16.8778 30.0846 15.1143 29.7427 13.4013ZM16.0002 21C15.0113 21 14.0446 20.7068 13.2224 20.1574C12.4001 19.608 11.7593 18.8271 11.3808 17.9134C11.0024 16.9998 10.9034 15.9945 11.0963 15.0246C11.2892 14.0547 11.7654 13.1637 12.4647 12.4645C13.164 11.7652 14.0549 11.289 15.0248 11.0961C15.9947 10.9032 17 11.0022 17.9137 11.3806C18.8273 11.7591 19.6082 12.3999 20.1576 13.2222C20.707 14.0444 21.0002 15.0111 21.0002 16C21.0002 17.3261 20.4735 18.5979 19.5358 19.5356C18.5981 20.4732 17.3263 21 16.0002 21Z" fill="#A3AED0"/>
</g>
<defs>
<clipPath id="clip0_0_1671">
<rect width="32" height="32" fill="white"/>
</clipPath>
</defs>
</svg>
