<svg width="26" height="26" viewBox="0 0 26 26" fill="none" xmlns="http://www.w3.org/2000/svg">
<g clip-path="url(#clip0_0_699)">
<path d="M23.2405 11.6904L18.904 15.475L20.203 21.1096C20.2718 21.4042 20.2521 21.7125 20.1466 21.996C20.0411 22.2794 19.8544 22.5255 19.6098 22.7034C19.3651 22.8814 19.0735 22.9832 18.7713 22.9963C18.4691 23.0094 18.1698 22.9331 17.9107 22.7769L12.9963 19.7962L8.09244 22.7769C7.83337 22.9331 7.53403 23.0094 7.23184 22.9963C6.92965 22.9832 6.63801 22.8814 6.3934 22.7034C6.14878 22.5255 5.96204 22.2794 5.85653 21.996C5.75101 21.7125 5.73139 21.4042 5.80013 21.1096L7.09725 15.4808L2.75975 11.6904C2.53033 11.4925 2.36444 11.2314 2.28288 10.9396C2.20132 10.6478 2.20771 10.3385 2.30126 10.0503C2.39481 9.76218 2.57135 9.50806 2.80875 9.31985C3.04614 9.13164 3.33382 9.0177 3.63571 8.99233L9.35302 8.49714L11.5847 3.17406C11.7013 2.89475 11.8979 2.65617 12.1497 2.48835C12.4016 2.32053 12.6975 2.23099 13.0001 2.23099C13.3028 2.23099 13.5987 2.32053 13.8505 2.48835C14.1024 2.65617 14.299 2.89475 14.4155 3.17406L16.654 8.49714L22.3694 8.99233C22.6713 9.0177 22.9589 9.13164 23.1963 9.31985C23.4337 9.50806 23.6103 9.76218 23.7038 10.0503C23.7974 10.3385 23.8038 10.6478 23.7222 10.9396C23.6406 11.2314 23.4747 11.4925 23.2453 11.6904H23.2405Z" fill="#2B3674"/>
</g>
<defs>
<clipPath id="clip0_0_699">
<rect width="24.6154" height="24.6154" fill="white" transform="translate(0.692383 0.692322)"/>
</clipPath>
</defs>
</svg>
