<svg width="24" height="24" viewBox="0 0 24 24" fill="none" xmlns="http://www.w3.org/2000/svg">
<g clip-path="url(#clip0_0_1636)">
<path d="M21.3986 5.91281L20.9617 5.66063C21.013 5.38927 21.013 5.11073 20.9617 4.83938L21.3986 4.58719C21.5709 4.48773 21.6966 4.3239 21.7481 4.13173C21.7997 3.93957 21.7727 3.73481 21.6733 3.5625C21.5738 3.39019 21.41 3.26445 21.2178 3.21294C21.0257 3.16142 20.8209 3.18836 20.6486 3.28781L20.2108 3.54094C20.0013 3.36118 19.7603 3.22165 19.5001 3.12938V2.625C19.5001 2.42609 19.4211 2.23532 19.2805 2.09467C19.1398 1.95402 18.9491 1.875 18.7501 1.875C18.5512 1.875 18.3605 1.95402 18.2198 2.09467C18.0792 2.23532 18.0001 2.42609 18.0001 2.625V3.12938C17.74 3.22165 17.499 3.36118 17.2895 3.54094L16.8517 3.28781C16.7664 3.23857 16.6722 3.20661 16.5745 3.19376C16.4769 3.18091 16.3776 3.18743 16.2825 3.21294C16.1873 3.23844 16.0981 3.28244 16.02 3.34242C15.9418 3.4024 15.8763 3.47718 15.827 3.5625C15.7778 3.64782 15.7458 3.742 15.733 3.83967C15.7201 3.93734 15.7266 4.03658 15.7521 4.13173C15.7777 4.22688 15.8217 4.31608 15.8816 4.39423C15.9416 4.47237 16.0164 4.53794 16.1017 4.58719L16.5386 4.83938C16.4873 5.11073 16.4873 5.38927 16.5386 5.66063L16.1017 5.91281C15.9586 5.99533 15.8468 6.12275 15.7836 6.27532C15.7203 6.42789 15.7092 6.59706 15.752 6.75659C15.7947 6.91612 15.8889 7.05708 16.02 7.1576C16.151 7.25811 16.3116 7.31256 16.4767 7.3125C16.6084 7.31291 16.7378 7.27829 16.8517 7.21219L17.2895 6.95906C17.499 7.13882 17.74 7.27835 18.0001 7.37063V7.875C18.0001 8.07391 18.0792 8.26468 18.2198 8.40533C18.3605 8.54598 18.5512 8.625 18.7501 8.625C18.9491 8.625 19.1398 8.54598 19.2805 8.40533C19.4211 8.26468 19.5001 8.07391 19.5001 7.875V7.37063C19.7603 7.27835 20.0013 7.13882 20.2108 6.95906L20.6486 7.21219C20.7625 7.27829 20.8919 7.31291 21.0236 7.3125C21.1887 7.31256 21.3493 7.25811 21.4803 7.1576C21.6114 7.05708 21.7056 6.91612 21.7483 6.75659C21.7911 6.59706 21.78 6.42789 21.7167 6.27532C21.6535 6.12275 21.5417 5.99533 21.3986 5.91281ZM18.7501 6C18.6018 6 18.4568 5.95601 18.3335 5.8736C18.2101 5.79119 18.114 5.67406 18.0572 5.53701C18.0005 5.39997 17.9856 5.24917 18.0146 5.10368C18.0435 4.9582 18.1149 4.82456 18.2198 4.71967C18.3247 4.61478 18.4583 4.54335 18.6038 4.51441C18.7493 4.48547 18.9001 4.50032 19.0372 4.55709C19.1742 4.61386 19.2913 4.70999 19.3738 4.83332C19.4562 4.95666 19.5001 5.10166 19.5001 5.25C19.5001 5.44891 19.4211 5.63968 19.2805 5.78033C19.1398 5.92098 18.9491 6 18.7501 6ZM12.0001 7.125C12.816 7.125 13.6135 7.36693 14.2919 7.82019C14.9702 8.27345 15.4989 8.91769 15.8112 9.67143C16.1234 10.4252 16.2051 11.2546 16.0459 12.0547C15.8867 12.8549 15.4939 13.5899 14.917 14.1668C14.3401 14.7437 13.6051 15.1366 12.8049 15.2957C12.0047 15.4549 11.1753 15.3732 10.4216 15.061C9.66783 14.7488 9.0236 14.2201 8.57034 13.5417C8.11707 12.8634 7.87515 12.0658 7.87515 11.25C7.87515 10.156 8.30974 9.10677 9.08333 8.33318C9.85692 7.5596 10.9061 7.125 12.0001 7.125ZM21.6151 10.3763C21.9578 12.413 21.6443 14.506 20.7199 16.353C19.7954 18.1999 18.308 19.7053 16.4722 20.6518C14.6365 21.5983 12.5474 21.9369 10.5067 21.6187C8.46592 21.3005 6.57911 20.3419 5.11866 18.8815C3.65821 17.421 2.69968 15.5342 2.38147 13.4935C2.06326 11.4528 2.40184 9.3637 3.34832 7.52793C4.2948 5.69217 5.8002 4.2047 7.64718 3.28029C9.49415 2.35588 11.5871 2.04236 13.6239 2.385C13.8186 2.41943 13.9918 2.52934 14.1059 2.69082C14.2199 2.85231 14.2656 3.0523 14.233 3.2473C14.2004 3.44229 14.0921 3.61652 13.9317 3.73208C13.7713 3.84764 13.5717 3.89519 13.3764 3.86438C12.1934 3.66537 10.9812 3.72654 9.82428 4.04363C8.66733 4.36072 7.59336 4.92612 6.67713 5.70047C5.76091 6.47482 5.02442 7.43953 4.51893 8.52745C4.01344 9.61537 3.7511 10.8004 3.75015 12C3.74837 14.0196 4.49063 15.969 5.83515 17.4759C6.38042 16.6851 7.07306 16.0068 7.87515 15.4781C7.94353 15.433 8.02483 15.4114 8.10661 15.4169C8.18838 15.4223 8.26613 15.4543 8.32796 15.5081C9.34695 16.3898 10.6494 16.8751 11.9969 16.8751C13.3444 16.8751 14.6468 16.3898 15.6658 15.5081C15.7277 15.4541 15.8056 15.4219 15.8876 15.4165C15.9696 15.4111 16.051 15.4327 16.1195 15.4781C16.9224 16.0067 17.616 16.685 18.1623 17.4759C19.5079 15.9694 20.2512 14.0199 20.2501 12C20.2502 11.5389 20.2119 11.0785 20.1358 10.6238C20.1185 10.5262 20.1208 10.4262 20.1424 10.3295C20.164 10.2328 20.2046 10.1413 20.2617 10.0604C20.3189 9.9795 20.3915 9.91071 20.4754 9.85801C20.5593 9.80532 20.6528 9.76977 20.7506 9.75342C20.8483 9.73708 20.9483 9.74025 21.0448 9.76277C21.1412 9.78528 21.2323 9.82669 21.3127 9.8846C21.3931 9.94251 21.4612 10.0158 21.5131 10.1002C21.565 10.1845 21.5997 10.2784 21.6151 10.3763Z" fill="#A3AED0"/>
</g>
<defs>
<clipPath id="clip0_0_1636">
<rect width="24" height="24" fill="white"/>
</clipPath>
</defs>
</svg>
