<svg width="28" height="26" viewBox="0 0 28 26" fill="none" xmlns="http://www.w3.org/2000/svg">
<path d="M27.7427 10.4013C27.7149 10.2604 27.657 10.1273 27.5731 10.0108C27.4892 9.89433 27.3812 9.79729 27.2565 9.72627L23.5277 7.60127L23.5127 3.39877C23.5123 3.25403 23.4804 3.11112 23.4193 2.97991C23.3583 2.84869 23.2694 2.7323 23.159 2.63877C21.8064 1.49464 20.2488 0.617849 18.569 0.0550168C18.4367 0.0102416 18.2965 -0.00632851 18.1574 0.0063737C18.0184 0.0190759 17.8835 0.0607688 17.7615 0.128767L14.0002 2.23127L10.2352 0.125017C10.1132 0.0566358 9.97813 0.0146281 9.83882 0.00170904C9.69951 -0.01121 9.55904 0.00524716 9.42649 0.0500167C7.7477 0.616464 6.19179 1.49665 4.84149 2.64377C4.7312 2.73716 4.64246 2.85336 4.58139 2.98434C4.52032 3.11533 4.48837 3.258 4.48774 3.40252L4.46899 7.60877L0.740238 9.73377C0.61549 9.80479 0.507494 9.90183 0.42359 10.0183C0.339686 10.1348 0.281842 10.2679 0.253988 10.4088C-0.0872668 12.1236 -0.0872668 13.8889 0.253988 15.6038C0.281842 15.7446 0.339686 15.8778 0.42359 15.9942C0.507494 16.1107 0.61549 16.2077 0.740238 16.2788L4.46899 18.4038L4.48399 22.6075C4.48444 22.7523 4.51631 22.8952 4.57738 23.0264C4.63846 23.1576 4.72729 23.274 4.83774 23.3675C6.19033 24.5116 7.74793 25.3884 9.42774 25.9513C9.56002 25.996 9.70022 26.0126 9.8393 25.9999C9.97838 25.9872 10.1133 25.9455 10.2352 25.8775L14.0002 23.7688L17.7652 25.875C17.9142 25.958 18.0822 26.0011 18.2527 26C18.362 26 18.4704 25.9823 18.574 25.9475C20.2524 25.3813 21.8082 24.502 23.159 23.3563C23.2693 23.2629 23.358 23.1467 23.4191 23.0157C23.4802 22.8847 23.5121 22.742 23.5127 22.5975L23.5315 18.3913L27.2602 16.2663C27.385 16.1952 27.493 16.0982 27.5769 15.9817C27.6608 15.8653 27.7186 15.7321 27.7465 15.5913C28.0858 13.8778 28.0846 12.1143 27.7427 10.4013ZM14.0002 18C13.0113 18 12.0446 17.7068 11.2224 17.1574C10.4001 16.608 9.75928 15.8271 9.38084 14.9134C9.0024 13.9998 8.90338 12.9945 9.09631 12.0246C9.28924 11.0547 9.76544 10.1637 10.4647 9.46448C11.164 8.76522 12.0549 8.28902 13.0248 8.09609C13.9947 7.90316 15 8.00218 15.9137 8.38062C16.8273 8.75906 17.6082 9.39992 18.1576 10.2222C18.707 11.0444 19.0002 12.0111 19.0002 13C19.0002 14.3261 18.4735 15.5979 17.5358 16.5356C16.5981 17.4732 15.3263 18 14.0002 18Z" fill="#A3AED0"/>
</svg>
