<svg width="25" height="26" viewBox="0 0 25 26" fill="none" xmlns="http://www.w3.org/2000/svg">
<path d="M12.5015 0C10.0516 0 7.65661 0.762437 5.61953 2.1909C3.58246 3.61935 1.99475 5.64968 1.05719 8.02512C0.119625 10.4006 -0.125684 13.0144 0.352281 15.5362C0.830246 18.0579 2.01002 20.3743 3.74241 22.1924C5.4748 24.0105 7.682 25.2486 10.0849 25.7502C12.4878 26.2518 14.9784 25.9944 17.2419 25.0104C19.5054 24.0265 21.44 22.3603 22.8012 20.2224C24.1623 18.0846 24.8888 15.5712 24.8888 13C24.8853 9.5533 23.5791 6.24882 21.2568 3.81163C18.9345 1.37445 15.7858 0.00363977 12.5015 0ZM16.9871 16.2925C17.0757 16.3854 17.1459 16.4957 17.1938 16.6171C17.2417 16.7385 17.2664 16.8686 17.2664 17C17.2664 17.1314 17.2417 17.2615 17.1938 17.3829C17.1459 17.5043 17.0757 17.6146 16.9871 17.7075C16.8986 17.8004 16.7935 17.8741 16.6778 17.9244C16.5622 17.9747 16.4382 18.0006 16.313 18.0006C16.1878 18.0006 16.0638 17.9747 15.9481 17.9244C15.8325 17.8741 15.7274 17.8004 15.6388 17.7075L12.5015 14.4137L9.36421 17.7075C9.27568 17.8004 9.17058 17.8741 9.05491 17.9244C8.93924 17.9747 8.81526 18.0006 8.69006 18.0006C8.56486 18.0006 8.44088 17.9747 8.32521 17.9244C8.20954 17.8741 8.10444 17.8004 8.01591 17.7075C7.92738 17.6146 7.85715 17.5043 7.80924 17.3829C7.76132 17.2615 7.73666 17.1314 7.73666 17C7.73666 16.8686 7.76132 16.7385 7.80924 16.6171C7.85715 16.4957 7.92738 16.3854 8.01591 16.2925L11.1544 13L8.01591 9.7075C7.83711 9.51986 7.73666 9.26536 7.73666 9C7.73666 8.73464 7.83711 8.48014 8.01591 8.2925C8.1947 8.10486 8.4372 7.99944 8.69006 7.99944C8.94292 7.99944 9.18542 8.10486 9.36421 8.2925L12.5015 11.5863L15.6388 8.2925C15.7274 8.19959 15.8325 8.12589 15.9481 8.07561C16.0638 8.02532 16.1878 7.99944 16.313 7.99944C16.4382 7.99944 16.5622 8.02532 16.6778 8.07561C16.7935 8.12589 16.8986 8.19959 16.9871 8.2925C17.0757 8.38541 17.1459 8.49571 17.1938 8.6171C17.2417 8.7385 17.2664 8.8686 17.2664 9C17.2664 9.1314 17.2417 9.2615 17.1938 9.3829C17.1459 9.50429 17.0757 9.61459 16.9871 9.7075L13.8486 13L16.9871 16.2925Z" fill="#FF0000"/>
</svg>
