<svg width="16" height="15" viewBox="0 0 16 15" fill="none" xmlns="http://www.w3.org/2000/svg">
<path d="M13.4435 1.4004C11.4591 -0.00848705 9.00882 0.648993 7.68594 2.26139C6.36307 0.648993 3.91274 -0.0163142 1.92842 1.4004C0.876136 2.15181 0.214698 3.4198 0.1696 4.75825C0.0643715 7.79518 2.64999 10.2294 6.59607 13.963L6.67124 14.0334C7.24248 14.5735 8.12189 14.5735 8.69313 14.0256L8.77581 13.9473C12.7219 10.2216 15.3 7.78735 15.2023 4.75042C15.1572 3.4198 14.4957 2.15181 13.4435 1.4004ZM7.76111 12.7967L7.68594 12.875L7.61078 12.7967C4.033 9.42323 1.67287 7.19249 1.67287 4.93044C1.67287 3.36501 2.80032 2.19094 4.30359 2.19094C5.4611 2.19094 6.58856 2.96583 6.98692 4.03815H8.39248C8.78333 2.96583 9.91078 2.19094 11.0683 2.19094C12.5716 2.19094 13.699 3.36501 13.699 4.93044C13.699 7.19249 11.3389 9.42323 7.76111 12.7967Z" fill="#4318FF"/>
</svg>
