<svg width="205" height="21" viewBox="0 0 205 21" fill="none" xmlns="http://www.w3.org/2000/svg">
<g clip-path="url(#clip0_0_1825)">
<path d="M3.46734 15.0562V20.3803H0.582214V15.0562C0.582214 14.6712 0.748664 14.326 0.998338 14.0737C1.26188 13.8215 1.62252 13.6754 2.02478 13.6754C2.82928 13.6754 3.46734 14.2862 3.46734 15.0562Z" fill="white"/>
<path d="M8.36356 16.9419V20.3806H5.47852V16.9419C5.47852 16.5568 5.64496 16.2116 5.89463 15.9593C6.15817 15.7071 6.5188 15.561 6.92104 15.561C7.71165 15.561 8.36356 16.1718 8.36356 16.9419Z" fill="white"/>
<path d="M13.2464 8.43111V20.3805H10.3613V8.43111C10.3613 8.04608 10.5278 7.70087 10.7913 7.44861C11.0549 7.19634 11.4155 7.05029 11.8178 7.05029C12.6084 7.05029 13.2464 7.66104 13.2464 8.43111Z" fill="white"/>
<path d="M18.143 1.38076V20.3803H15.258V1.38076C15.258 0.995721 15.4244 0.650517 15.688 0.398252C15.9515 0.145987 16.3121 -6.10352e-05 16.7144 -6.10352e-05C17.4911 -6.10352e-05 18.143 0.623962 18.143 1.38076Z" fill="white"/>
<path d="M23.0377 13.5693V20.3804H20.1387V13.5693C20.1387 13.1843 20.3051 12.8391 20.5687 12.5868C20.8322 12.3345 21.1929 12.1885 21.5951 12.1885C22.3857 12.1885 23.0377 12.8125 23.0377 13.5693Z" fill="white"/>
<path d="M27.9203 6.12057V20.3802H25.0352V6.12057C25.0352 5.73553 25.2016 5.39033 25.4513 5.13806C25.7148 4.88579 26.0755 4.73975 26.4777 4.73975C27.2684 4.73975 27.9203 5.36377 27.9203 6.12057Z" fill="white"/>
<path d="M32.8184 15.9327V20.3805H29.9336V15.9327C29.9336 15.5476 30.1 15.2024 30.3497 14.9502C30.6132 14.6979 30.9738 14.5386 31.376 14.5386C32.1666 14.5519 32.8184 15.1759 32.8184 15.9327Z" fill="white"/>
<path d="M37.6996 15.0561V20.3802H34.8145V15.0561C34.8145 14.6711 34.9809 14.3259 35.2306 14.0736C35.4941 13.8213 35.8548 13.6753 36.257 13.6753C37.0615 13.6753 37.6996 14.286 37.6996 15.0561Z" fill="white"/>
<path d="M42.5963 16.9416V20.3804H39.6973V16.9416C39.6973 16.5566 39.8638 16.2114 40.1135 15.9591C40.377 15.7068 40.7376 15.5608 41.1399 15.5608C41.9444 15.5608 42.5963 16.1715 42.5963 16.9416Z" fill="white"/>
<path d="M47.479 8.43099V20.3804H44.5939V8.43099C44.5939 8.04595 44.7603 7.70075 45.01 7.44848C45.2735 7.19622 45.6342 7.05017 46.0364 7.05017C46.8409 7.05017 47.479 7.66092 47.479 8.43099Z" fill="white"/>
<path d="M52.3761 1.38076V20.3803H49.4904V1.38076C49.4904 0.995721 49.6568 0.650517 49.9066 0.398252C50.1702 0.145987 50.5309 -6.10352e-05 50.9332 -6.10352e-05C51.724 -6.10352e-05 52.3761 0.623962 52.3761 1.38076Z" fill="white"/>
<path d="M57.2576 13.5693V20.3804H54.373V13.5693C54.373 13.1843 54.5395 12.8391 54.7891 12.5868C55.0526 12.3345 55.4131 12.1885 55.8153 12.1885C56.6196 12.1885 57.2576 12.8125 57.2576 13.5693Z" fill="white"/>
<path d="M62.1533 6.12057V20.3802H59.2676V6.12057C59.2676 5.73553 59.4341 5.39033 59.6977 5.13806C59.9613 4.88579 60.322 4.73975 60.7243 4.73975C61.5151 4.73975 62.1533 5.36377 62.1533 6.12057Z" fill="white"/>
<path d="M67.0518 15.9327V20.3805H64.166V15.9327C64.166 15.5476 64.3325 15.2024 64.5961 14.9502C64.8597 14.6979 65.2204 14.5386 65.6228 14.5386C66.3997 14.5519 67.0518 15.1759 67.0518 15.9327Z" fill="white"/>
<path d="M71.9339 15.0562V20.3803H69.0488V15.0562C69.0488 14.6712 69.2153 14.326 69.4788 14.0737C69.7424 13.8215 70.103 13.6754 70.5053 13.6754C71.2959 13.6754 71.9339 14.2862 71.9339 15.0562Z" fill="white"/>
<path d="M76.8285 16.9419V20.3806H73.9434V16.9419C73.9434 16.5568 74.1098 16.2116 74.3734 15.9593C74.6369 15.7071 74.9975 15.561 75.3998 15.561C76.1766 15.561 76.8285 16.1718 76.8285 16.9419Z" fill="white"/>
<path d="M81.7132 8.43111V20.3805H78.8281V8.43111C78.8281 8.04608 78.9946 7.70087 79.2581 7.44861C79.5217 7.19634 79.8823 7.05029 80.2846 7.05029C81.0752 7.05029 81.7132 7.66104 81.7132 8.43111Z" fill="white"/>
<path d="M86.6078 1.38082V20.3803H83.7227V1.38082C83.7227 0.995782 83.8891 0.650578 84.1526 0.398313C84.4162 0.146048 84.7768 0 85.1791 0C85.9558 0 86.6078 0.624023 86.6078 1.38082Z" fill="white"/>
<path d="M91.4925 13.5693V20.3804H88.6074V13.5693C88.6074 13.1843 88.7739 12.8391 89.0374 12.5868C89.301 12.3345 89.6616 12.1885 90.0639 12.1885C90.8545 12.1885 91.4925 12.8125 91.4925 13.5693Z" fill="white"/>
<path d="M96.3871 6.12057V20.3802H93.502V6.12057C93.502 5.73553 93.6684 5.39033 93.9319 5.13806C94.1955 4.88579 94.5561 4.73975 94.9584 4.73975C95.7352 4.73975 96.3871 5.36377 96.3871 6.12057Z" fill="white"/>
<path d="M101.284 15.9326V20.3804H98.3986V15.9326C98.3986 15.5476 98.565 15.2024 98.8286 14.9501C99.0921 14.6978 99.4527 14.5385 99.855 14.5385C100.632 14.5518 101.284 15.1758 101.284 15.9326Z" fill="white"/>
<path d="M106.582 15.0562V20.3803H103.697V15.0562C103.697 14.6712 103.864 14.326 104.127 14.0737C104.391 13.8215 104.751 13.6754 105.154 13.6754C105.93 13.6754 106.582 14.2862 106.582 15.0562Z" fill="white"/>
<path d="M111.466 16.9419V20.3806H108.58V16.9419C108.58 16.5568 108.747 16.2116 109.01 15.9593C109.274 15.7071 109.635 15.561 110.037 15.561C110.828 15.561 111.466 16.1718 111.466 16.9419Z" fill="white"/>
<path d="M116.362 8.43111V20.3805H113.477V8.43111C113.477 8.04608 113.643 7.70087 113.893 7.44861C114.156 7.19634 114.517 7.05029 114.919 7.05029C115.71 7.05029 116.362 7.66104 116.362 8.43111Z" fill="white"/>
<path d="M121.258 1.38076V20.3803H118.373V1.38076C118.373 0.995721 118.539 0.650517 118.789 0.398252C119.052 0.145987 119.413 -6.10352e-05 119.815 -6.10352e-05C120.606 -6.10352e-05 121.258 0.623962 121.258 1.38076Z" fill="white"/>
<path d="M126.138 13.5693V20.3804H123.254V13.5693C123.254 13.1843 123.42 12.8391 123.684 12.5868C123.947 12.3345 124.308 12.1885 124.71 12.1885C125.5 12.1885 126.138 12.8125 126.138 13.5693Z" fill="white"/>
<path d="M131.037 6.12057V20.3802H128.152V6.12057C128.152 5.73553 128.319 5.39033 128.582 5.13806C128.846 4.88579 129.207 4.73975 129.609 4.73975C130.386 4.73975 131.037 5.36377 131.037 6.12057Z" fill="white"/>
<path d="M135.921 15.9327V20.3805H133.033V15.9327C133.033 15.5476 133.2 15.2024 133.45 14.9502C133.713 14.6979 134.074 14.5386 134.477 14.5386C135.282 14.5519 135.921 15.1759 135.921 15.9327Z" fill="#2B3674"/>
<path d="M140.815 15.0561V20.3802H137.93V15.0561C137.93 14.6711 138.096 14.3259 138.346 14.0736C138.609 13.8213 138.97 13.6753 139.372 13.6753C140.163 13.6753 140.815 14.286 140.815 15.0561Z" fill="#2B3674"/>
<path d="M145.711 16.9416V20.3804H142.826V16.9416C142.826 16.5566 142.992 16.2114 143.256 15.9591C143.52 15.7068 143.88 15.5608 144.282 15.5608C145.059 15.5608 145.711 16.1715 145.711 16.9416Z" fill="#2B3674"/>
<path d="M150.594 8.43111V20.3805H147.709V8.43111C147.709 8.04608 147.875 7.70087 148.139 7.44861C148.403 7.19634 148.763 7.05029 149.165 7.05029C149.942 7.05029 150.594 7.66104 150.594 8.43111Z" fill="#2B3674"/>
<path d="M155.491 1.38082V20.3803H152.605V1.38082C152.605 0.995782 152.772 0.650578 153.035 0.398313C153.299 0.146048 153.66 0 154.062 0C154.839 0 155.491 0.624023 155.491 1.38082Z" fill="#2B3674"/>
<path d="M160.373 13.5693V20.3804H157.488V13.5693C157.488 13.1843 157.655 12.8391 157.918 12.5868C158.182 12.3345 158.542 12.1885 158.945 12.1885C159.721 12.1885 160.373 12.8125 160.373 13.5693Z" fill="#2B3674"/>
<path d="M165.27 6.12057V20.3802H162.385V6.12057C162.385 5.73553 162.551 5.39033 162.815 5.13806C163.078 4.88579 163.439 4.73975 163.841 4.73975C164.618 4.73975 165.27 5.36377 165.27 6.12057Z" fill="#2B3674"/>
<path d="M170.151 15.9327V20.3805H167.266V15.9327C167.266 15.5476 167.432 15.2024 167.696 14.9502C167.959 14.6979 168.32 14.5386 168.722 14.5386C169.513 14.5519 170.151 15.1759 170.151 15.9327Z" fill="#2B3674"/>
<path d="M175.049 15.0562V20.3803H172.164V15.0562C172.164 14.6712 172.331 14.326 172.594 14.0737C172.858 13.8215 173.218 13.6754 173.621 13.6754C174.397 13.6754 175.049 14.2862 175.049 15.0562Z" fill="#2B3674"/>
<path d="M179.93 16.9416V20.3804H177.045V16.9416C177.045 16.5566 177.212 16.2114 177.461 15.9591C177.725 15.7068 178.085 15.5608 178.488 15.5608C179.292 15.5608 179.93 16.1715 179.93 16.9416Z" fill="#2B3674"/>
<path d="M184.829 8.43111V20.3805H181.943V8.43111C181.943 8.04608 182.11 7.70087 182.359 7.44861C182.623 7.19634 182.984 7.05029 183.386 7.05029C184.177 7.05029 184.829 7.66104 184.829 8.43111Z" fill="#2B3674"/>
<path d="M189.723 1.38082V20.3803H186.838V1.38082C186.838 0.995782 187.004 0.650578 187.254 0.398313C187.518 0.146048 187.878 0 188.28 0C189.071 0 189.723 0.624023 189.723 1.38082Z" fill="#2B3674"/>
<path d="M194.606 13.5693V20.3804H191.721V13.5693C191.721 13.1843 191.887 12.8391 192.137 12.5868C192.401 12.3345 192.761 12.1885 193.163 12.1885C193.954 12.1885 194.606 12.8125 194.606 13.5693Z" fill="#2B3674"/>
<path d="M199.502 6.12057V20.3802H196.617V6.12057C196.617 5.73553 196.784 5.39033 197.033 5.13806C197.297 4.88579 197.657 4.73975 198.06 4.73975C198.85 4.73975 199.502 5.36377 199.502 6.12057Z" fill="#2B3674"/>
<path d="M204.385 15.9327V20.3805H201.5V15.9327C201.5 15.5476 201.667 15.2024 201.916 14.9502C202.18 14.6979 202.54 14.5386 202.943 14.5386C203.747 14.5519 204.385 15.1759 204.385 15.9327Z" fill="#2B3674"/>
</g>
<defs>
<clipPath id="clip0_0_1825">
<rect width="203.803" height="20.3803" fill="white" transform="translate(0.582031)"/>
</clipPath>
</defs>
</svg>
